<svg width="55" height="42" viewBox="0 0 55 42" fill="none" xmlns="http://www.w3.org/2000/svg">
<path d="M51.3043 38.1124C49.0571 40.3596 46.1009 41.4772 43.1567 41.4772C40.2005 41.4772 37.2563 40.3476 35.009 38.1124L28.5198 31.2506L37.6288 22.1296C41.5945 18.1639 41.5945 11.7347 37.6288 7.76904L51.3043 21.8171C55.8108 26.3235 55.8108 33.606 51.3043 38.1124Z" fill="#F55C94"/>
<path d="M36.2107 21.5768L27.1017 30.6979L19.6751 38.1124C17.4279 40.3597 14.4837 41.4893 11.5275 41.4893C8.57125 41.4893 5.62704 40.3597 3.37983 38.1124C-1.12661 33.618 -1.12661 26.3116 3.37983 21.8172L23.833 1.35193C25.6356 -0.450644 28.5438 -0.450644 30.3463 1.35193L30.8631 1.86867L36.2107 7.21631C40.1764 11.17 40.1764 17.6112 36.2107 21.5768Z" fill="#0A7FA3"/>
</svg>
